<svg xmlns="http://www.w3.org/2000/svg" xmlns:xlink="http://www.w3.org/1999/xlink" width="32" height="32" viewBox="0 0 32 32"><defs><linearGradient id="a"><stop offset="0" stop-color="#000092"/><stop offset="1" stop-color="#ff00f3"/></linearGradient><linearGradient id="b" x1="4" x2="26" y1="15.501" y2="15.501" gradientUnits="userSpaceOnUse" xlink:href="#a"/></defs><path fill="url(#b)" fill-rule="evenodd" d="M 4 2 L 4 27 L 8.6875 27 L 13.998047 27 L 13.998047 26 L 8.6875 26 L 5 26 L 5 3 L 19 3 L 19 6.5039062 A 0.50005 0.50005 0 0 0 19.5 7.0039062 L 23 7.0039062 L 23 9.4960938 L 23 15.421875 L 23 16.578125 L 24 16.578125 L 24 15.421875 L 24 9.4960938 L 24 6.5351562 L 23.998047 6.5351562 A 0.50005 0.50005 0 0 0 23.853516 6.1503906 L 19.853516 2.1503906 A 0.50005 0.50005 0 0 0 19.492188 2.0039062 A 0.50005 0.50005 0 0 0 19.34375 2.0273438 L 19.34375 2 L 4 2 z M 20 3.7109375 L 22.292969 6.0039062 L 20 6.0039062 L 20 3.7109375 z M 6.96875 5.0019531 L 6.96875 6.0019531 L 18 6.0019531 L 18 5.0019531 L 6.96875 5.0019531 z M 7.0527344 8.0039062 L 7.0527344 9.0039062 L 21 9.0039062 L 21 8.0039062 L 7.0527344 8.0039062 z M 7 11.003906 L 7 12.003906 L 21 12.003906 L 21 11.003906 L 7 11.003906 z M 7 14.003906 L 7 15.003906 L 21 15.003906 L 21 14.003906 L 7 14.003906 z M 7 17.003906 L 7 18.003906 L 21 18.003906 L 21 17.003906 L 7 17.003906 z M 22.361328 17.501953 A 0.50005 0.50005 0 0 0 21.861328 18.001953 L 21.861328 19.541016 A 0.50005 0.50005 0 0 0 21.861328 19.550781 C 21.861328 19.631781 21.794508 19.817034 21.619141 20.052734 C 21.443776 20.288334 21.182919 20.562162 20.908203 20.851562 C 20.514316 21.266431 20.063164 21.709989 19.833984 22.257812 L 19 22.257812 L 19 20.740234 A 0.50005 0.50005 0 0 0 18.5 20.240234 L 15.5 20.240234 A 0.50005 0.50005 0 0 0 15 20.740234 L 15 28.501953 A 0.50005 0.50005 0 0 0 15.5 29.001953 L 18.5 29.001953 A 0.50005 0.50005 0 0 0 19 28.501953 L 19 27.814453 L 19.677734 27.814453 L 19.597656 27.660156 L 19.580078 27.623047 C 19.612458 27.701047 19.651908 27.771991 19.695312 27.837891 A 0.50005 0.50005 0 0 0 19.697266 27.837891 C 19.744416 27.908891 19.795256 27.971291 19.847656 28.025391 A 0.50005 0.50005 0 0 0 19.853516 28.035156 C 19.909696 28.091156 19.970847 28.142953 20.039062 28.189453 C 20.107263 28.236453 20.179842 28.274441 20.253906 28.306641 C 20.333556 28.340641 20.416171 28.368766 20.5 28.384766 A 0.50005 0.50005 0 0 0 20.539062 28.394531 C 20.564822 28.394531 20.638092 28.414062 20.753906 28.414062 L 25.796875 28.414062 A 0.50005 0.50005 0 0 0 25.880859 28.408203 L 26.505859 28.408203 C 27.188015 28.408203 27.623047 27.7702 27.623047 27.125 C 27.623047 26.930968 27.573577 26.743932 27.5 26.568359 C 27.811122 26.330064 28.019531 25.957062 28.019531 25.541016 C 28.019531 25.332401 27.9571 25.137554 27.869141 24.957031 C 28.191637 24.722164 28.416016 24.359553 28.416016 23.935547 C 28.416016 23.632485 28.294456 23.360515 28.115234 23.138672 C 28.293147 22.918229 28.416016 22.651186 28.416016 22.349609 C 28.416016 21.647409 27.834964 21.068359 27.132812 21.068359 L 25.128906 21.068359 C 24.980537 21.068359 24.840247 21.097126 24.707031 21.144531 C 24.644887 20.9251 24.552753 20.718286 24.449219 20.515625 L 24.449219 19.427734 C 24.449219 18.348534 23.508782 17.505859 22.40625 17.505859 L 22.361328 17.505859 L 22.361328 17.501953 z M 22.861328 18.673828 C 23.195074 18.831128 23.449219 19.081934 23.449219 19.427734 L 23.449219 20.589844 A 0.50005 0.50005 0 0 0 23.457031 20.681641 L 23.464844 20.712891 A 0.50005 0.50005 0 0 0 23.521484 20.869141 C 23.884847 21.505441 23.949996 22.415925 23.669922 23.140625 C 23.389858 23.865425 22.868572 24.242188 22.363281 24.242188 L 22.3125 24.242188 L 20.179688 24.242188 A 0.50005 0.50005 0 1 0 20.179688 25.242188 L 22.3125 25.242188 L 22.363281 25.242188 C 22.87648 25.242188 23.348688 25.04536 23.742188 24.71875 C 23.742188 24.71875 23.744141 24.720703 23.744141 24.720703 C 23.564855 24.949455 23.449219 25.235585 23.449219 25.541016 C 23.449219 25.826275 23.554795 26.089623 23.712891 26.310547 C 23.549007 26.542227 23.449219 26.830042 23.449219 27.125 C 23.449219 27.223597 23.476446 27.318053 23.496094 27.414062 L 20.753906 27.414062 C 20.759506 27.414062 20.719299 27.414297 20.693359 27.404297 C 20.677459 27.404297 20.664524 27.394625 20.652344 27.390625 C 20.634064 27.380625 20.617376 27.374234 20.603516 27.365234 C 20.589676 27.355234 20.57604 27.343078 20.5625 27.330078 C 20.54909 27.316078 20.53833 27.303969 20.53125 27.292969 C 20.51988 27.275969 20.510266 27.259141 20.503906 27.244141 A 0.50005 0.50005 0 0 0 20.486328 27.207031 L 20.425781 27.089844 A 0.50005 0.50005 0 0 0 19.982422 26.820312 L 19 26.820312 L 19 23.257812 L 19.775391 23.257812 A 0.50005 0.50005 0 0 0 20.679688 22.958984 C 20.679688 22.670584 21.091285 22.109463 21.632812 21.539062 C 21.903578 21.253862 22.188129 20.962538 22.421875 20.648438 C 22.570368 20.448838 22.62076 20.192072 22.701172 19.951172 A 0.50005 0.50005 0 0 0 22.861328 19.589844 L 22.861328 19.550781 L 22.861328 18.673828 z M 7 20.003906 L 7 21.003906 L 14.109375 21.003906 L 14.109375 20.003906 L 7 20.003906 z M 16 21.240234 L 18 21.240234 L 18 28.001953 L 16 28.001953 L 16 21.240234 z M 25.128906 22.068359 L 27.132812 22.068359 C 27.298793 22.068359 27.416016 22.184809 27.416016 22.349609 C 27.416016 22.514409 27.298793 22.632812 27.132812 22.632812 L 25.128906 22.632812 C 24.962929 22.632812 24.845703 22.514409 24.845703 22.349609 C 24.845703 22.184809 24.962929 22.068359 25.128906 22.068359 z M 24.720703 23.652344 L 27.144531 23.652344 C 27.299659 23.652344 27.416016 23.766447 27.416016 23.935547 C 27.416016 24.104447 27.299659 24.21875 27.144531 24.21875 L 24.720703 24.21875 C 24.565575 24.21875 24.449219 24.104447 24.449219 23.935547 C 24.449219 23.766447 24.565575 23.652344 24.720703 23.652344 z M 24.644531 25.257812 L 26.826172 25.257812 C 26.908231 25.257812 27.019531 25.345616 27.019531 25.541016 C 27.019531 25.736316 26.908322 25.822266 26.826172 25.822266 L 24.644531 25.822266 C 24.562385 25.822266 24.449219 25.736616 24.449219 25.541016 C 24.449219 25.345816 24.562471 25.257812 24.644531 25.257812 z M 16.964844 26.001953 A 0.50061852 0.50002229 0 0 0 16.5 26.501953 A 0.50061852 0.50002229 0 0 0 17 27.001953 A 0.50061852 0.50002229 0 0 0 17.5 26.501953 A 0.50061852 0.50002229 0 0 0 17 26.001953 A 0.50061852 0.50002229 0 0 0 16.964844 26.001953 z M 24.566406 26.841797 L 26.505859 26.841797 C 26.507464 26.841797 26.623047 26.903 26.623047 27.125 C 26.623047 27.3472 26.507459 27.408203 26.505859 27.408203 L 24.566406 27.408203 C 24.564804 27.408203 24.449219 27.3469 24.449219 27.125 C 24.449219 26.9028 24.564806 26.841797 24.566406 26.841797 z " color="#000" font-family="sans-serif" font-weight="400" overflow="visible" style="line-height:normal;text-indent:0;text-align:start;text-decoration-line:none;text-decoration-style:solid;text-decoration-color:#000;text-transform:none;block-progression:tb;isolation:auto;mix-blend-mode:normal"/></svg>