<svg id="Layer_1" data-name="Layer 1" xmlns="http://www.w3.org/2000/svg" viewBox="0 0 1000 1000"><defs><style>.cls-1,.cls-5{fill:#2e3192;}.cls-2,.cls-4{fill:#fff;}.cls-3{fill:#0074fb;}.cls-4{font-size:151.73px;font-family:Montserrat-SemiBold, Montserrat;font-weight:600;letter-spacing:0.05em;}.cls-5{font-size:196.35px;font-family:Lato-Black, Lato;font-weight:800;}.cls-6{letter-spacing:-0.01em;}.cls-7{letter-spacing:-0.01em;}.cls-8{letter-spacing:-0.01em;}.cls-9{letter-spacing:0em;}.cls-10{letter-spacing:-0.01em;}</style></defs><path class="cls-1" d="M386.1,515.42c8.2,56.47,22.25,107.14,41.95,143.18A276.42,276.42,0,0,1,253.62,515.42Z"/><path class="cls-1" d="M386.1,270.58H253.62A276.36,276.36,0,0,1,428.05,127.4C408.35,163.44,394.3,214.11,386.1,270.58Z"/><path class="cls-1" d="M432.6,515.42H567.4c-4.63,29.85-11,57.26-19,81.15C532,646,512.23,668.16,500,668.16S468.05,646,451.56,596.57C443.6,572.7,437.24,545.27,432.6,515.42Z"/><path class="cls-1" d="M567.4,270.58H432.6c4.63-29.86,11-57.28,19-81.15C468.05,140,487.77,117.84,500,117.84s32,22.13,48.44,71.59C556.4,213.3,562.77,240.73,567.4,270.58Z"/><path class="cls-1" d="M613.9,515.42H746.38A276.42,276.42,0,0,1,572,658.6C591.65,622.56,605.7,571.89,613.9,515.42Z"/><path class="cls-1" d="M613.9,270.58C605.7,214.11,591.65,163.44,572,127.4A276.36,276.36,0,0,1,746.38,270.58Z"/><path class="cls-1" d="M780.14,393A89.4,89.4,0,0,1,691,482.11H306.29c-49,0-89.1-40.11-89.1-89.11a89.39,89.39,0,0,1,89.1-89.11H691C740,303.89,780.14,344,780.14,393Z"/><path class="cls-1" d="M500,17C292.34,17,124,185.34,124,393S292.34,769,500,769,876,600.66,876,393,707.66,17,500,17ZM802.3,501.57C757.7,625.42,639,714.21,500,714.21S242.32,625.42,197.7,501.57a24.14,24.14,0,0,1-1-2.89,321.25,321.25,0,0,1,0-211.36,22,22,0,0,1,1-2.89C242.3,160.58,361,71.79,500,71.79s257.7,88.79,302.3,212.64a22,22,0,0,1,1,2.89,321.25,321.25,0,0,1,0,211.36A22.51,22.51,0,0,1,802.3,501.57Z"/><path class="cls-2" d="M691,303.89H306.29A89.39,89.39,0,0,0,217.19,393c0,49,40.1,89.11,89.1,89.11H691A89.4,89.4,0,0,0,780.14,393C780.14,344,740,303.89,691,303.89Z"/><path class="cls-3" d="M780.14,393A89.4,89.4,0,0,1,691,482.11H306.29c-49,0-89.1-40.11-89.1-89.11a89.39,89.39,0,0,1,89.1-89.11H691C740,303.89,780.14,344,780.14,393Z"/><text class="cls-4" transform="translate(329.77 452.77)">PRO</text><text class="cls-5" transform="translate(19 933.34)">n<tspan class="cls-6" x="111.92" y="0">e</tspan><tspan x="216.47" y="0">t</tspan><tspan class="cls-7" x="291.87" y="0">P</tspan><tspan class="cls-8" x="415.47" y="0">r</tspan><tspan class="cls-9" x="488.61" y="0">o </tspan><tspan class="cls-10" x="648.04" y="0">I</tspan><tspan x="707.63" y="0">nc.</tspan></text></svg>